<svg xmlns="http://www.w3.org/2000/svg" width="48" height="48" viewBox="0 0 24 24" fill="none" stroke="currentColor" stroke-width="2" stroke-linecap="round" stroke-linejoin="round">
  <path d="M9.5 2A2.5 2.5 0 0 1 12 4.5v15a2.5 2.5 0 0 1-4.96.44 2.5 2.5 0 0 1-2.04-3.44A2.5 2.5 0 0 1 2.5 12 2.5 2.5 0 0 1 5 7.5a2.5 2.5 0 0 1 4.5-5Z"></path>
  <path d="M14.5 2A2.5 2.5 0 0 0 12 4.5v15a2.5 2.5 0 0 0 4.96.44 2.5 2.5 0 0 0 2.04-3.44A2.5 2.5 0 0 0 21.5 12a2.5 2.5 0 0 0-2.5-4.5 2.5 2.5 0 0 0-4.5-5Z"></path>
</svg>